<mxfile host="drawio-plugin" modified="2024-02-19T00:01:26.425Z" agent="5.0 (Windows NT 10.0; Win64; x64) AppleWebKit/537.36 (KHTML, like Gecko) Chrome/111.0.0.0 Safari/537.36" etag="br51PxXihbWviP2ntwdO" version="20.5.3" type="embed"><diagram id="23iRSUPoRavnBvh4doch" name="Page-1"><mxGraphModel dx="1174" dy="723" grid="1" gridSize="10" guides="1" tooltips="1" connect="1" arrows="1" fold="1" page="1" pageScale="1" pageWidth="827" pageHeight="1169" math="0" shadow="0"><root><mxCell id="0"/><mxCell id="1" parent="0"/><mxCell id="2" style="edgeStyle=orthogonalEdgeStyle;rounded=0;orthogonalLoop=1;jettySize=auto;html=1;exitX=0.5;exitY=1;exitDx=0;exitDy=0;noEdgeStyle=1;orthogonal=1;" edge="1" parent="1" source="3" target="6"><mxGeometry relative="1" as="geometry"/></mxCell><mxCell id="3" value="&lt;div&gt;Root&lt;/div&gt;" style="rounded=0;whiteSpace=wrap;html=1;" vertex="1" parent="1"><mxGeometry x="775" width="120" height="60" as="geometry"/></mxCell><mxCell id="4" style="rounded=0;orthogonalLoop=1;jettySize=auto;html=1;exitX=0.5;exitY=1;exitDx=0;exitDy=0;entryX=0.5;entryY=0;entryDx=0;entryDy=0;noEdgeStyle=1;orthogonal=1;" edge="1" parent="1" source="6" target="10"><mxGeometry relative="1" as="geometry"/></mxCell><mxCell id="5" style="rounded=0;orthogonalLoop=1;jettySize=auto;html=1;exitX=0.5;exitY=1;exitDx=0;exitDy=0;entryX=0.5;entryY=0;entryDx=0;entryDy=0;noEdgeStyle=1;orthogonal=1;" edge="1" parent="1" source="6" target="12"><mxGeometry relative="1" as="geometry"><mxPoint x="650" y="270" as="targetPoint"/></mxGeometry></mxCell><mxCell id="6" value="Wizard State" style="rounded=1;whiteSpace=wrap;html=1;" vertex="1" parent="1"><mxGeometry x="775" y="110" width="120" height="60" as="geometry"/></mxCell><mxCell id="7" style="rounded=0;orthogonalLoop=1;jettySize=auto;html=1;exitX=0.5;exitY=1;exitDx=0;exitDy=0;entryX=0.5;entryY=0;entryDx=0;entryDy=0;noEdgeStyle=1;orthogonal=1;" edge="1" parent="1" source="10" target="13"><mxGeometry relative="1" as="geometry"><mxPoint x="-410" y="240" as="targetPoint"/></mxGeometry></mxCell><mxCell id="8" style="rounded=0;orthogonalLoop=1;jettySize=auto;html=1;exitX=0.5;exitY=1;exitDx=0;exitDy=0;entryX=0.5;entryY=0;entryDx=0;entryDy=0;noEdgeStyle=1;orthogonal=1;" edge="1" parent="1" source="10" target="14"><mxGeometry relative="1" as="geometry"/></mxCell><mxCell id="9" style="rounded=0;orthogonalLoop=1;jettySize=auto;html=1;exitX=0.5;exitY=1;exitDx=0;exitDy=0;entryX=0.5;entryY=0;entryDx=0;entryDy=0;noEdgeStyle=1;orthogonal=1;" edge="1" parent="1" source="10" target="15"><mxGeometry relative="1" as="geometry"/></mxCell><mxCell id="10" value="0 : Not Holding Snaffle" style="rounded=1;whiteSpace=wrap;html=1;" vertex="1" parent="1"><mxGeometry x="290" y="200" width="120" height="60" as="geometry"/></mxCell><mxCell id="11" style="rounded=0;orthogonalLoop=1;jettySize=auto;html=1;exitX=0.5;exitY=0;exitDx=0;exitDy=0;entryX=0.5;entryY=0;entryDx=0;entryDy=0;" edge="1" parent="1" source="12" target="12"><mxGeometry relative="1" as="geometry"/></mxCell><mxCell id="17" style="rounded=0;orthogonalLoop=1;jettySize=auto;html=1;exitX=0.5;exitY=1;exitDx=0;exitDy=0;entryX=0.5;entryY=0;entryDx=0;entryDy=0;noEdgeStyle=1;orthogonal=1;" edge="1" parent="1" source="12" target="16"><mxGeometry relative="1" as="geometry"/></mxCell><mxCell id="19" style="edgeStyle=none;rounded=0;orthogonalLoop=1;jettySize=auto;html=1;exitX=0.5;exitY=1;exitDx=0;exitDy=0;entryX=0.5;entryY=0;entryDx=0;entryDy=0;noEdgeStyle=1;orthogonal=1;" edge="1" parent="1" source="12" target="18"><mxGeometry relative="1" as="geometry"/></mxCell><mxCell id="22" style="edgeStyle=none;rounded=0;orthogonalLoop=1;jettySize=auto;html=1;exitX=0.5;exitY=1;exitDx=0;exitDy=0;entryX=0.5;entryY=0;entryDx=0;entryDy=0;noEdgeStyle=1;orthogonal=1;" edge="1" parent="1" source="12" target="21"><mxGeometry relative="1" as="geometry"/></mxCell><mxCell id="12" value="&lt;div&gt;1 : Holding Snaffle&lt;/div&gt;" style="rounded=1;whiteSpace=wrap;html=1;" vertex="1" parent="1"><mxGeometry x="1150" y="200" width="120" height="60" as="geometry"/></mxCell><mxCell id="13" value="&lt;div&gt;Move&lt;/div&gt;" style="rounded=1;whiteSpace=wrap;html=1;" vertex="1" parent="1"><mxGeometry x="130" y="310" width="120" height="60" as="geometry"/></mxCell><mxCell id="14" value="&lt;div&gt;Cast Spell&lt;/div&gt;" style="rounded=1;whiteSpace=wrap;html=1;" vertex="1" parent="1"><mxGeometry x="290" y="310" width="120" height="60" as="geometry"/></mxCell><mxCell id="15" value="Wait" style="rounded=1;whiteSpace=wrap;html=1;" vertex="1" parent="1"><mxGeometry x="450" y="310" width="120" height="60" as="geometry"/></mxCell><mxCell id="16" value="Pass" style="rounded=1;whiteSpace=wrap;html=1;" vertex="1" parent="1"><mxGeometry x="990" y="310" width="120" height="60" as="geometry"/></mxCell><mxCell id="18" value="Make Shot" style="rounded=1;whiteSpace=wrap;html=1;" vertex="1" parent="1"><mxGeometry x="1150" y="310" width="120" height="60" as="geometry"/></mxCell><mxCell id="21" value="Wait" style="rounded=1;whiteSpace=wrap;html=1;" vertex="1" parent="1"><mxGeometry x="1310" y="310" width="120" height="60" as="geometry"/></mxCell></root></mxGraphModel></diagram></mxfile>